# xmcd
#
# Track frame offsets:
#	150
#	17100
#	35833
#	54700
#	74606
#	92762
#
# Disc length: 1481 seconds
#
# Revision: 1
# Processed by: cddbd v1.5.2PL0 Copyright (c) Steve Scherf et al.
# Submitted via: audiograbber 1.83.01
#
DISCID=5405c706
DTITLE=Desmond Myers - The Yellow Rosw EP: A Prelude to Infinitiv
DYEAR=2012
DGENRE=Country
TTITLE0=I Want to kiss you like I can't breathe
TTITLE1=Falling
TTITLE2=Stranger
TTITLE3=Lucero (live)
TTITLE4=The German Lesson (live)
TTITLE5=The Ballad of Paolo and Raymond
EXTD=
EXTT0=
EXTT1=
EXTT2=
EXTT3=
EXTT4=
EXTT5=
PLAYORDER=
